# xmcd CD database file
#
# Track frame offsets:
#	150
#	17785
#	36032
#
# Disc length: 713 seconds
#
# Revision: 0
# Processed by: cddbd v1.5.1PL0 Copyright (c) Steve Scherf et al.
# Submitted via: CDex 1.51
#
DISCID=1a02c703
DTITLE=石井聖子 - 月桃
DYEAR=1998
DGENRE=Techno
TTITLE0=月桃
TTITLE1=STAND BY ME
TTITLE2=月桃(オリジナル・カラオケ)
EXTD=YEAR: 1998
EXTT0=
EXTT1=
EXTT2=
PLAYORDER=
